<?xml version="1.0" encoding="UTF-8"?>
<svg id="Layer_1" data-name="Layer 1" xmlns="http://www.w3.org/2000/svg" viewBox="0 0 25.65 25.65">
  <defs>
    <style>
      .cls-1 {
        fill: #1e1e28;
      }

      .cls-2 {
        fill: #c8860a;
      }
    </style>
  </defs>
  <g>
    <rect class="cls-1" x="2.29" y="17.7" width="21.62" height="7.15" rx="1.57" ry="1.57"/>
    <rect class="cls-1" x="2.29" y="9.53" width="21.62" height="7.15" rx="1.57" ry="1.57"/>
    <rect class="cls-1" x="2.29" y="1.36" width="21.62" height="7.15" rx="1.57" ry="1.57"/>
  </g>
  <g>
    <path class="cls-2" d="M8.68,2c1.78,0,3.46.69,4.72,1.96,2.6,2.6,2.6,6.84,0,9.45-1.26,1.26-2.94,1.96-4.72,1.96s-3.46-.69-4.72-1.96c-2.6-2.6-2.6-6.84,0-9.45,1.26-1.26,2.94-1.96,4.72-1.96M8.68,0c-2.22,0-4.44.85-6.14,2.54C-.85,5.93-.85,11.43,2.54,14.82c1.7,1.7,3.92,2.54,6.14,2.54s4.44-.85,6.14-2.54c3.39-3.39,3.39-8.89,0-12.28-1.7-1.7-3.92-2.54-6.14-2.54h0Z"/>
    <path class="cls-2" d="M15.42,14.64l7.95,7.95-.78.78-7.95-7.95.78-.78M15.42,12.36c-.34,0-.68.13-.94.39l-1.73,1.73c-.52.52-.52,1.36,0,1.88l8.9,8.9c.26.26.6.39.94.39s.68-.13.94-.39l1.73-1.73c.52-.52.52-1.36,0-1.88l-8.9-8.9c-.26-.26-.6-.39-.94-.39h0Z"/>
  </g>
</svg>